<svg width="74" height="47" viewBox="0 0 74 47" fill="none" xmlns="http://www.w3.org/2000/svg">
<rect width="74" height="47" fill="#282828"/>
<path d="M13.404 30.092H16.212V13.64H13.404V11.732H23.412C25.884 11.732 27.768 12.224 29.064 13.208C30.36 14.192 31.008 15.62 31.008 17.492C31.008 19.484 30.336 21.008 28.992 22.064C27.672 23.096 25.752 23.612 23.232 23.612H20.532V21.704H23.124C24.684 21.704 25.884 21.344 26.724 20.624C27.564 19.904 27.984 18.872 27.984 17.528C27.984 16.28 27.612 15.32 26.868 14.648C26.148 13.976 25.104 13.64 23.736 13.64H19.164V30.092H21.972V32H13.404V30.092ZM33.7252 30.092H36.4612V13.64H33.7252V11.732H40.6012L47.2252 25.952L53.5252 11.732H60.5092V13.64H57.7732V30.092H60.5092V32H52.3372V30.092H54.9652V14.144L47.3332 30.956H46.3972L38.6572 14.144V30.092H41.2852V32H33.7252V30.092Z" fill="white"/>
</svg>
